<svg width="39" height="38" viewBox="0 0 39 38" fill="none" xmlns="http://www.w3.org/2000/svg">
<path d="M16.5 31C14.5701 31 13 32.5701 13 34.5C13 36.4299 14.5701 38 16.5 38C18.4299 38 20 36.4299 20 34.5C19.9999 32.5701 18.4298 31 16.5 31ZM16.5 36.0456C15.6476 36.0456 14.9542 35.3521 14.9542 34.4998C14.9542 33.6475 15.6477 32.9541 16.5 32.9541C17.3523 32.9541 18.0458 33.6476 18.0458 34.4998C18.0458 35.3523 17.3523 36.0456 16.5 36.0456Z" fill="#FFA800"/>
<path d="M28.5 31C26.5701 31 25 32.5701 25 34.5C25 36.4299 26.5701 38 28.5 38C30.4299 38 32 36.4299 32 34.5C31.9999 32.5701 30.4298 31 28.5 31ZM28.5 36.0456C27.6476 36.0456 26.9542 35.3521 26.9542 34.4998C26.9542 33.6475 27.6477 32.9541 28.5 32.9541C29.3523 32.9541 30.0458 33.6476 30.0458 34.4998C30.0458 35.3523 29.3523 36.0456 28.5 36.0456Z" fill="#FFA800"/>
<path d="M29.0815 12H15.9185C15.4112 12 15 12.4477 15 13C15 13.5523 15.4113 14 15.9185 14H29.0815C29.5888 14 30 13.5523 30 13C30 12.4476 29.5888 12 29.0815 12Z" fill="#FFA800"/>
<path d="M28.1199 16H16.8801C16.394 16 16 16.4477 16 17C16 17.5523 16.394 18 16.8801 18H28.1199C28.606 18 29 17.5523 29 17C29 16.4478 28.606 16 28.1199 16Z" fill="#FFA800"/>
<path d="M38.5 7C38.1161 6.53043 37.5941 6 36.9862 6H7.5L6.99647 3.43027C6.86426 2.79119 6.42687 2.25458 5.8262 1.99465L1.40773 0.0833183C0.897632 -0.137503 0.304814 0.0957678 0.0835576 0.603967C-0.137939 1.11233 0.0961298 1.7032 0.605988 1.92371L5.02454 3.83512L9.89538 27.3985C10.0872 28.3264 10.9165 29 11.8673 29H33.9841C34.5401 29 34.9908 28.5509 34.9908 27.9968C34.9908 27.4427 34.5401 26.9935 33.9841 26.9935H11.8674L11.2749 24.1273H34.1706C35.1212 24.1273 35.9506 23.4537 36.1424 22.5257L38.9582 8.90498C39.0808 8.31187 38.884 7.46949 38.5 7ZM34.1706 22.121H10.8602L8 8H36.9862L34.1706 22.121Z" fill="#FFA800"/>
</svg>
