<svg width="19" height="17" viewBox="0 0 19 17" fill="none" xmlns="http://www.w3.org/2000/svg">
<path d="M17.4653 1.57825C16.4704 0.56571 15.1533 0.0122981 13.7475 0.0122981C12.3417 0.0122981 11.0206 0.569809 10.0257 1.58235L9.50604 2.11117L8.97838 1.57415C7.98347 0.561611 6.65826 0 5.2525 0C3.85077 0 2.52959 0.557511 1.53871 1.56595C0.543799 2.57849 -0.00400592 3.92308 2.20561e-05 5.35375C2.20561e-05 6.78442 0.551854 8.12491 1.54676 9.13745L9.1113 16.836C9.21603 16.9426 9.35701 17 9.49396 17C9.63091 17 9.77189 16.9467 9.87662 16.8401L17.4573 9.15385C18.4522 8.14131 19 6.79672 19 5.36605C19.004 3.93537 18.4602 2.59079 17.4653 1.57825ZM16.6919 8.37087L9.49396 15.6677L2.31208 8.35857C1.5226 7.5551 1.08758 6.48927 1.08758 5.35375C1.08758 4.21823 1.51857 3.1524 2.30805 2.35303C3.09351 1.55365 4.14078 1.11092 5.2525 1.11092C6.36825 1.11092 7.41955 1.55365 8.20903 2.35713L9.11936 3.28358C9.33284 3.50084 9.67522 3.50084 9.8887 3.28358L10.791 2.36532C11.5804 1.56185 12.6317 1.11912 13.7435 1.11912C14.8552 1.11912 15.9025 1.56185 16.6919 2.36123C17.4814 3.1647 17.9124 4.23053 17.9124 5.36605C17.9165 6.50157 17.4814 7.5674 16.6919 8.37087Z" fill="#FFA800"/>
</svg>
