<svg width="16" height="16" viewBox="0 0 16 16" fill="none" xmlns="http://www.w3.org/2000/svg">
<path fill-rule="evenodd" clip-rule="evenodd" d="M10.9996 16H4.99962C2.23924 16 0 13.7614 0 11.0001V4.99986C0 2.23858 2.23924 0 4.99962 0H10.9996C13.7608 0 16 2.23858 16 4.99986V11.0001C16 13.7614 13.7608 16 10.9996 16ZM14.4998 4.99986C14.4998 3.06986 12.9303 1.4995 10.9996 1.4995H4.99962C3.06971 1.4995 1.50019 3.06986 1.50019 4.99986V11.0001C1.50019 12.9301 3.06971 14.5005 4.99962 14.5005H10.9996C12.9303 14.5005 14.4998 12.9301 14.4998 11.0001V4.99986ZM12.3002 4.23258C12.0053 4.23258 11.7669 3.99409 11.7669 3.69999C11.7669 3.40588 12.0053 3.16739 12.3002 3.16739C12.5943 3.16739 12.8328 3.40588 12.8328 3.69999C12.8328 3.99409 12.5943 4.23258 12.3002 4.23258ZM8 12.0006C5.79124 12.0006 4 10.2092 4 8.00038C4 5.79151 5.79124 4.00019 8 4.00019C10.2088 4.00019 12 5.79151 12 8.00038C12 10.2092 10.2088 12.0006 8 12.0006ZM8 5.50045C6.62171 5.50045 5.50019 6.62127 5.50019 8.00038C5.50019 9.37797 6.62171 10.5003 8 10.5003C9.37752 10.5003 10.4998 9.37797 10.4998 8.00038C10.4998 6.62127 9.37752 5.50045 8 5.50045Z" fill="white"/>
<path fill-rule="evenodd" clip-rule="evenodd" d="M10.9996 16H4.99962C2.23924 16 0 13.7614 0 11.0001V4.99986C0 2.23858 2.23924 0 4.99962 0H10.9996C13.7608 0 16 2.23858 16 4.99986V11.0001C16 13.7614 13.7608 16 10.9996 16ZM14.4998 4.99986C14.4998 3.06986 12.9303 1.4995 10.9996 1.4995H4.99962C3.06971 1.4995 1.50019 3.06986 1.50019 4.99986V11.0001C1.50019 12.9301 3.06971 14.5005 4.99962 14.5005H10.9996C12.9303 14.5005 14.4998 12.9301 14.4998 11.0001V4.99986ZM12.3002 4.23258C12.0053 4.23258 11.7669 3.99409 11.7669 3.69999C11.7669 3.40588 12.0053 3.16739 12.3002 3.16739C12.5943 3.16739 12.8328 3.40588 12.8328 3.69999C12.8328 3.99409 12.5943 4.23258 12.3002 4.23258ZM8 12.0006C5.79124 12.0006 4 10.2092 4 8.00038C4 5.79151 5.79124 4.00019 8 4.00019C10.2088 4.00019 12 5.79151 12 8.00038C12 10.2092 10.2088 12.0006 8 12.0006ZM8 5.50045C6.62171 5.50045 5.50019 6.62127 5.50019 8.00038C5.50019 9.37797 6.62171 10.5003 8 10.5003C9.37752 10.5003 10.4998 9.37797 10.4998 8.00038C10.4998 6.62127 9.37752 5.50045 8 5.50045Z" fill="url(#paint0_linear)"/>
<defs>
<linearGradient id="paint0_linear" x1="1.75" y1="13" x2="16" y2="4.5" gradientUnits="userSpaceOnUse">
<stop stop-color="#FEB60C"/>
<stop offset="0.473958" stop-color="#E63E50"/>
<stop offset="0.744792" stop-color="#C8307F"/>
<stop offset="1" stop-color="#9D28B1"/>
</linearGradient>
</defs>
</svg>
