<svg width="22" height="22" viewBox="0 0 22 22" fill="none" xmlns="http://www.w3.org/2000/svg">
<path opacity="0.1" d="M8.56083 17.1217C10.6488 17.1217 12.547 16.3814 14.0276 15.1286L20.6713 21.7722C20.8231 21.9241 21.0129 22 21.2217 22C21.4305 22 21.6204 21.9241 21.7722 21.7722C22.0759 21.4685 22.0759 20.975 21.7722 20.6713L15.1286 14.0276C16.3624 12.547 17.1217 10.6299 17.1217 8.56083C17.1217 3.83434 13.2873 0 8.56083 0C3.85332 0 0 3.85332 0 8.56083C0 13.2873 3.85332 17.1217 8.56083 17.1217ZM8.56083 1.55651C12.4331 1.55651 15.5651 4.70751 15.5651 8.56083C15.5651 12.4331 12.4331 15.5651 8.56083 15.5651C4.68852 15.5651 1.55651 12.4141 1.55651 8.56083C1.55651 4.70751 4.70751 1.55651 8.56083 1.55651Z" fill="black"/>
</svg>
