<svg width="14.999999999999998" height="14.999999999999998" xmlns="http://www.w3.org/2000/svg">
 <g>
  <title>background</title>
  <rect x="-1" y="-1" width="17" height="17" id="canvas_background" fill="none"/>
 </g>

 <g>
  <title>Layer 1</title>
  <path transform="rotate(180 12.262299537658691,7.5) " d="m10.2623,3l0,9c0,1.1046 0.89539,2 2,2l2,0l0,-1l-2,0c-0.55225,0 -1,-0.4477 -1,-1l0,-9c0,-0.55228 0.44775,-1 1,-1l2,0l0,-1l-2,0c-1.10461,0 -2,0.89543 -2,2z" fill="#FFA800" id="svg_4"/>
  <g id="svg_7">
   <path transform="rotate(180 5.631150245666503,7.480030059814453) " d="m10.262301,6.97821l-9.2623,0l0,1.00364l9.2623,0l0,-1.00364z" fill="#FFA800" id="svg_1"/>
   <path d="m11.146219,11.16101l-4.16693,-4.27212l-0.69552,0.70967l4.16695,4.27213l0.9414,-0.46183l-0.2459,-0.24785z" fill="#FFA800" id="svg_2" transform="rotate(88 8.83794403076172,9.37978935241699) "/>
   <path d="m10.68122,3.74579l-4.16693,4.27212l-0.69552,-0.7097l4.16695,-4.2721l0.9414,0.50177l-0.2459,0.20791z" fill="#FFA800" id="svg_3" transform="rotate(89 8.372944831848143,5.527009963989258) "/>
  </g>
 </g>
</svg>