<svg width="32" height="32" viewBox="0 0 32 32" fill="none" xmlns="http://www.w3.org/2000/svg">
<path d="M12.4521 24.9042C15.4892 24.9042 18.2502 23.8274 20.4038 22.0052L30.0673 31.6687C30.2882 31.8896 30.5643 32 30.868 32C31.1717 32 31.4478 31.8896 31.6687 31.6687C32.1104 31.2269 32.1104 30.5091 31.6687 30.0673L22.0052 20.4038C23.7998 18.2502 24.9042 15.4616 24.9042 12.4521C24.9042 5.57722 19.327 0 12.4521 0C5.60483 0 0 5.60483 0 12.4521C0 19.327 5.60483 24.9042 12.4521 24.9042ZM12.4521 2.26402C18.0846 2.26402 22.6402 6.84728 22.6402 12.4521C22.6402 18.0846 18.0846 22.6402 12.4521 22.6402C6.81967 22.6402 2.26402 18.0569 2.26402 12.4521C2.26402 6.84728 6.84728 2.26402 12.4521 2.26402Z" fill="#FFA800"/>
</svg>
