<svg width="21" height="11" viewBox="0 0 21 11" fill="none" xmlns="http://www.w3.org/2000/svg">
<path fill-rule="evenodd" clip-rule="evenodd" d="M18.0739 6.99441C18.7706 7.62392 19.5054 8.21681 20.1301 8.90989C20.4062 9.2167 20.6675 9.53457 20.8672 9.89182C21.1506 10.4004 20.8944 10.9601 20.4018 10.9898L17.3427 10.9885C16.5536 11.0493 15.9237 10.7549 15.3951 10.256C14.9716 9.85727 14.5788 9.43091 14.1714 9.01838C14.0047 8.85046 13.83 8.69153 13.6208 8.56577C13.2038 8.31424 12.8412 8.39094 12.6026 8.79518C12.3589 9.20426 12.3038 9.65895 12.2803 10.1157C12.2473 10.7832 12.03 10.9587 11.3062 10.9885C9.75938 11.0555 8.2919 10.8392 6.92866 10.1171C5.72619 9.48136 4.79387 8.58235 3.98268 7.56449C2.40287 5.58267 1.19306 3.40599 0.105847 1.16781C-0.138611 0.664752 0.0405114 0.393876 0.641747 0.383511C1.6394 0.366236 2.63706 0.367618 3.63691 0.382129C4.04214 0.388348 4.31082 0.603943 4.46719 0.957741C5.00749 2.18705 5.66819 3.35555 6.49774 4.43974C6.71797 4.72928 6.94334 5.01743 7.26415 5.21989C7.61872 5.44516 7.88887 5.37123 8.05625 5.00499C8.16196 4.77419 8.20821 4.52266 8.23244 4.27528C8.31099 3.41981 8.322 2.5671 8.18325 1.71509C8.0981 1.1837 7.77435 0.839578 7.20101 0.739381C6.90884 0.687556 6.95215 0.586668 7.09383 0.431882C7.33976 0.165152 7.571 0 8.03203 0H11.4897C12.0344 0.0988145 12.1398 0.231489 12.2146 0.739381L12.2176 4.29325C12.2117 4.4895 12.3383 5.16669 12.72 5.29729C13.0262 5.38919 13.2273 5.16254 13.4108 4.98357C14.2389 4.17025 14.8291 3.20836 15.357 2.21331C15.5911 1.7759 15.793 1.32121 15.9883 0.867218C16.1329 0.530005 16.3598 0.364163 16.7701 0.372455L20.0971 0.374528C20.1962 0.374528 20.2961 0.37591 20.3915 0.391112C20.9523 0.479561 21.1058 0.702067 20.9325 1.20996C20.6602 2.00462 20.1287 2.6673 19.6097 3.33344C19.0547 4.04449 18.4615 4.73066 17.9109 5.44516C17.4051 6.09817 17.4455 6.42709 18.0739 6.99441Z" fill="#4782C9"/>
</svg>
