<svg width="13" height="13" viewBox="0 0 13 13" fill="none" xmlns="http://www.w3.org/2000/svg">
<path d="M12.2623 6.01815H3V7.02179H12.2623V6.01815Z" fill="#FFA800"/>
<path d="M12.7541 6.27212L8.58717 2L7.89165 2.70967L12.0586 6.9818L13 6.51997L12.7541 6.27212Z" fill="#FFA800"/>
<path d="M12.7541 6.72788L8.58717 11L7.89165 10.2903L12.0586 6.0182L13 6.51997L12.7541 6.72788Z" fill="#FFA800"/>
<path d="M0 2V11C0 12.1046 0.895386 13 2 13H4V12H2C1.44775 12 1 11.5523 1 11V2C1 1.44772 1.44775 1 2 1H4V0H2C0.895386 0 0 0.895432 0 2Z" fill="#FFA800"/>
</svg>
