<svg width="18" height="18" viewBox="0 0 18 18" fill="none" xmlns="http://www.w3.org/2000/svg">
<path d="M13.6518 10.9114C13.3238 10.5704 12.9281 10.388 12.5088 10.388C12.0928 10.388 11.6937 10.567 11.3522 10.9081L10.2835 11.9718C10.1956 11.9245 10.1077 11.8806 10.0231 11.8367C9.90136 11.7759 9.78638 11.7185 9.68831 11.6577C8.68729 11.0229 7.77757 10.1955 6.90506 9.12504C6.48233 8.59149 6.19826 8.14236 5.99197 7.68648C6.26928 7.43321 6.5263 7.16981 6.77655 6.91654C6.87124 6.82199 6.96593 6.72406 7.06063 6.62951C7.77081 5.92035 7.77081 5.00183 7.06063 4.29268L6.13739 3.37079C6.03255 3.2661 5.92433 3.15804 5.82288 3.04998C5.61997 2.84061 5.40691 2.62449 5.18709 2.42187C4.85906 2.09769 4.46676 1.92547 4.05418 1.92547C3.6416 1.92547 3.24254 2.09769 2.90436 2.42187C2.90098 2.42525 2.90098 2.42525 2.89759 2.42863L1.74777 3.58691C1.3149 4.01915 1.06802 4.54595 1.01392 5.15717C0.932752 6.14323 1.22359 7.06175 1.44679 7.66284C1.99465 9.13855 2.81305 10.5062 4.03389 11.9718C5.51513 13.7379 7.29735 15.1326 9.33321 16.1152C10.111 16.4833 11.1493 16.919 12.3092 16.9932C12.3802 16.9966 12.4546 17 12.5223 17C13.3035 17 13.9596 16.7197 14.4736 16.1625C14.477 16.1558 14.4837 16.1524 14.4871 16.1456C14.663 15.9329 14.8659 15.7404 15.0789 15.5344C15.2244 15.396 15.3732 15.2508 15.5186 15.0988C15.8534 14.751 16.0292 14.3457 16.0292 13.9304C16.0292 13.5117 15.85 13.1098 15.5084 12.7721L13.6518 10.9114ZM14.8625 14.4673C14.8591 14.4707 14.8591 14.4673 14.8625 14.4673C14.7306 14.6091 14.5953 14.7375 14.4499 14.8793C14.2301 15.0887 14.0069 15.3082 13.7972 15.5547C13.4557 15.9194 13.0532 16.0916 12.5257 16.0916C12.4749 16.0916 12.4208 16.0916 12.3701 16.0882C11.3657 16.0241 10.4323 15.6324 9.73227 15.298C7.81816 14.3728 6.13739 13.0591 4.74069 11.3943C3.58749 10.0064 2.81643 8.72319 2.30577 7.34541C1.99126 6.50456 1.87628 5.84944 1.92701 5.23147C1.96083 4.83637 2.11301 4.50881 2.3937 4.22852L3.54691 3.07699C3.71261 2.92166 3.88847 2.83723 4.06094 2.83723C4.274 2.83723 4.44647 2.96556 4.55469 3.07362C4.55807 3.077 4.56145 3.08037 4.56484 3.08375C4.77113 3.27623 4.96727 3.47547 5.17356 3.68822C5.2784 3.79628 5.38662 3.90434 5.49484 4.01578L6.41808 4.93767C6.77655 5.29563 6.77655 5.62656 6.41808 5.98452C6.32 6.08245 6.22531 6.18038 6.12724 6.27493C5.84317 6.56534 5.57262 6.8355 5.2784 7.0989C5.27164 7.10565 5.26487 7.10903 5.26149 7.11578C4.97066 7.4062 5.02476 7.68986 5.08564 7.88234C5.08902 7.89247 5.0924 7.9026 5.09578 7.91273C5.33589 8.49356 5.67408 9.04062 6.18811 9.69236L6.1915 9.69574C7.12488 10.8439 8.10899 11.7388 9.19456 12.4243C9.33321 12.5121 9.47525 12.583 9.61052 12.6505C9.73227 12.7113 9.84725 12.7687 9.94532 12.8295C9.95885 12.8363 9.97238 12.8464 9.98591 12.8532C10.1009 12.9106 10.2091 12.9376 10.3207 12.9376C10.6014 12.9376 10.7773 12.762 10.8347 12.7046L11.9913 11.5497C12.1063 11.4349 12.2889 11.2964 12.502 11.2964C12.7117 11.2964 12.8841 11.4281 12.989 11.5429C12.9924 11.5463 12.9924 11.5463 12.9957 11.5497L14.8591 13.4103C15.2075 13.7548 15.2075 14.1094 14.8625 14.4673Z" fill="#FFAB31"/>
<path d="M9.64772 4.80598C10.5338 4.95456 11.3386 5.3733 11.9812 6.01491C12.6237 6.65652 13.0397 7.46023 13.1919 8.34498C13.2291 8.56786 13.4219 8.72319 13.6417 8.72319C13.6687 8.72319 13.6924 8.71982 13.7195 8.71644C13.9697 8.67592 14.1354 8.43953 14.0948 8.18964C13.9122 7.11916 13.4049 6.14323 12.6305 5.36992C11.8561 4.59661 10.8787 4.09007 9.80667 3.90772C9.55642 3.86719 9.32307 4.03266 9.27911 4.27918C9.23514 4.52569 9.39747 4.76545 9.64772 4.80598Z" fill="#FFAB31"/>
<path d="M16.993 8.05794C16.6921 6.29519 15.8601 4.69116 14.5818 3.41469C13.3035 2.13822 11.6971 1.3075 9.93178 1.00695C9.68491 0.96305 9.45156 1.1319 9.4076 1.37841C9.36701 1.6283 9.53272 1.86131 9.78298 1.90521C11.3589 2.17198 12.7962 2.91828 13.9392 4.0563C15.0823 5.1977 15.8263 6.63289 16.0935 8.20653C16.1307 8.4294 16.3234 8.58474 16.5433 8.58474C16.5703 8.58474 16.594 8.58136 16.621 8.57799C16.8679 8.54084 17.037 8.30446 16.993 8.05794Z" fill="#FFAB31"/>
<path d="M14.8625 14.4673C14.8591 14.4673 14.8591 14.4707 14.8625 14.4673ZM14.8625 14.4673C14.7306 14.6091 14.5953 14.7375 14.4499 14.8793C14.2301 15.0887 14.0069 15.3082 13.7972 15.5547C13.4557 15.9194 13.0532 16.0916 12.5257 16.0916C12.4749 16.0916 12.4208 16.0916 12.3701 16.0882C11.3657 16.0241 10.4323 15.6324 9.73227 15.298C7.81816 14.3728 6.13739 13.0591 4.74069 11.3943C3.58749 10.0064 2.81643 8.72319 2.30577 7.34541C1.99126 6.50456 1.87628 5.84944 1.92701 5.23147C1.96083 4.83637 2.11301 4.50881 2.3937 4.22852L3.54691 3.07699C3.71261 2.92166 3.88847 2.83723 4.06094 2.83723C4.274 2.83723 4.44647 2.96556 4.55469 3.07362C4.55807 3.077 4.56145 3.08037 4.56484 3.08375C4.77113 3.27623 4.96727 3.47547 5.17356 3.68822C5.2784 3.79628 5.38662 3.90434 5.49484 4.01578L6.41808 4.93767C6.77655 5.29563 6.77655 5.62656 6.41808 5.98452C6.32001 6.08245 6.22531 6.18038 6.12724 6.27493C5.84317 6.56534 5.57262 6.8355 5.2784 7.0989C5.27164 7.10565 5.26487 7.10903 5.26149 7.11578C4.97066 7.4062 5.02476 7.68986 5.08564 7.88234C5.08902 7.89247 5.0924 7.9026 5.09578 7.91273C5.33589 8.49356 5.67408 9.04062 6.18811 9.69236L6.1915 9.69574C7.12488 10.8439 8.10899 11.7388 9.19456 12.4243C9.33321 12.5121 9.47525 12.583 9.61052 12.6505C9.73227 12.7113 9.84725 12.7687 9.94533 12.8295C9.95885 12.8363 9.97238 12.8464 9.98591 12.8532C10.1009 12.9106 10.2091 12.9376 10.3207 12.9376C10.6014 12.9376 10.7773 12.762 10.8347 12.7046L11.9913 11.5497C12.1063 11.4349 12.2889 11.2964 12.502 11.2964C12.7117 11.2964 12.8841 11.4281 12.989 11.5429C12.9924 11.5463 12.9924 11.5463 12.9957 11.5497L14.8591 13.4103C15.2075 13.7548 15.2075 14.1094 14.8625 14.4673ZM13.6518 10.9114C13.3238 10.5704 12.9281 10.388 12.5088 10.388C12.0928 10.388 11.6937 10.567 11.3522 10.9081L10.2835 11.9718C10.1956 11.9245 10.1077 11.8806 10.0231 11.8367C9.90136 11.7759 9.78638 11.7185 9.68831 11.6577C8.68729 11.0229 7.77757 10.1955 6.90506 9.12504C6.48233 8.59149 6.19826 8.14236 5.99197 7.68648C6.26928 7.43321 6.5263 7.16981 6.77655 6.91654C6.87124 6.82199 6.96593 6.72406 7.06063 6.62951C7.77081 5.92035 7.77081 5.00183 7.06063 4.29268L6.13739 3.37079C6.03255 3.2661 5.92433 3.15804 5.82288 3.04998C5.61997 2.84061 5.40691 2.62449 5.18709 2.42187C4.85906 2.09769 4.46676 1.92547 4.05418 1.92547C3.6416 1.92547 3.24254 2.09769 2.90436 2.42187C2.90098 2.42525 2.90098 2.42525 2.89759 2.42863L1.74777 3.58691C1.3149 4.01915 1.06802 4.54595 1.01392 5.15717C0.932752 6.14323 1.22359 7.06175 1.44679 7.66284C1.99465 9.13855 2.81305 10.5062 4.03389 11.9718C5.51513 13.7379 7.29735 15.1326 9.33321 16.1153C10.111 16.4833 11.1493 16.919 12.3092 16.9932C12.3802 16.9966 12.4546 17 12.5223 17C13.3035 17 13.9596 16.7197 14.4736 16.1625C14.477 16.1558 14.4837 16.1524 14.4871 16.1456C14.663 15.9329 14.8659 15.7404 15.0789 15.5344C15.2244 15.396 15.3732 15.2508 15.5186 15.0988C15.8534 14.751 16.0292 14.3457 16.0292 13.9304C16.0292 13.5117 15.85 13.1098 15.5084 12.7721L13.6518 10.9114ZM9.64772 4.80598C10.5338 4.95456 11.3386 5.3733 11.9812 6.01491C12.6237 6.65652 13.0397 7.46023 13.1919 8.34498C13.2291 8.56786 13.4219 8.72319 13.6417 8.72319C13.6687 8.72319 13.6924 8.71982 13.7195 8.71644C13.9697 8.67592 14.1354 8.43953 14.0948 8.18964C13.9122 7.11916 13.4049 6.14323 12.6305 5.36992C11.8561 4.59661 10.8787 4.09007 9.80667 3.90772C9.55642 3.86719 9.32307 4.03266 9.27911 4.27918C9.23514 4.52569 9.39747 4.76545 9.64772 4.80598ZM16.993 8.05794C16.6921 6.29519 15.8601 4.69116 14.5818 3.41469C13.3035 2.13822 11.6971 1.3075 9.93178 1.00695C9.68491 0.96305 9.45156 1.1319 9.4076 1.37841C9.36701 1.6283 9.53272 1.86131 9.78298 1.90521C11.3589 2.17198 12.7962 2.91828 13.9392 4.0563C15.0823 5.1977 15.8263 6.63289 16.0935 8.20653C16.1307 8.4294 16.3234 8.58474 16.5433 8.58474C16.5703 8.58474 16.594 8.58136 16.621 8.57799C16.8679 8.54084 17.037 8.30446 16.993 8.05794Z" stroke="#FFAB31" stroke-width="0.3"/>
</svg>
