<svg width="453" height="166" viewBox="0 0 453 166" fill="none" xmlns="http://www.w3.org/2000/svg">
<path d="M284.651 124.377C290.379 112.49 293.225 98.491 293.225 82.4113C293.225 66.3333 290.38 52.4042 284.65 40.6556C279.068 28.7779 271.245 19.7219 261.173 13.5346C251.113 7.35491 239.698 4.27429 226.955 4.27429C214.074 4.27429 202.587 7.35381 192.525 13.5346C182.453 19.7216 174.561 28.7769 168.837 40.6538L168.835 40.6584C163.248 52.406 160.473 66.3339 160.473 82.4113C160.473 98.4892 163.248 112.486 168.833 124.372L168.836 124.379L168.839 124.385C174.564 136.121 182.457 145.103 192.525 151.288C202.587 157.469 214.074 160.548 226.955 160.548C239.698 160.548 251.113 157.468 261.173 151.288C271.244 145.102 279.067 136.117 284.651 124.377ZM284.651 124.377C284.65 124.379 284.65 124.38 284.649 124.381L283.748 123.947M284.651 124.377C284.651 124.377 284.651 124.377 284.651 124.376L283.748 123.947M283.748 123.947C278.239 135.531 270.539 144.361 260.65 150.436C250.76 156.511 239.529 159.548 226.955 159.548C214.24 159.548 202.938 156.511 193.049 150.436C183.159 144.361 175.389 135.531 169.738 123.947V41.0879C175.389 29.362 183.159 20.4615 193.049 14.3866C202.938 8.31174 214.24 5.27429 226.955 5.27429C239.529 5.27429 250.76 8.31174 260.65 14.3866C270.539 20.4615 278.239 29.362 283.748 41.0879C289.399 52.6726 292.225 66.4471 292.225 82.4113C292.225 98.3756 289.399 112.221 283.748 123.947ZM147.069 129.185H148.069V128.185V94.9143V93.9143H147.069H126.03V69.6964V68.6964H125.03H85.4017H84.4017V69.6964V93.9143H57.2254L116.526 8.81281L117.621 7.2411H115.706H72.263H71.7501L71.4509 7.65758L4.90958 100.264L4.72168 100.526V100.848V128.185V129.185H5.72168H83.1302V156.582V157.582H84.1302H125.03H126.03V156.582V129.185H147.069ZM242.836 50.4977L242.842 50.5081L242.848 50.5183C246.934 57.0551 249.054 67.6283 249.054 82.4113C249.054 97.1916 246.935 107.842 242.844 114.524L242.84 114.529C238.898 121.054 233.621 124.218 226.955 124.218C220.141 124.218 214.723 121.047 210.645 114.527C206.691 107.84 204.644 97.1873 204.644 82.4113C204.644 67.6267 206.694 57.0481 210.645 50.5074C214.728 43.8391 220.149 40.6045 226.955 40.6045C233.611 40.6045 238.889 43.8288 242.836 50.4977ZM446.408 129.185H447.408V128.185V94.9143V93.9143H446.408H425.369V69.6964V68.6964H424.369H384.741H383.741V69.6964V93.9143H356.564L415.865 8.81281L416.96 7.2411H415.045H371.602H371.089L370.79 7.65758L304.249 100.264L304.061 100.526V100.848V128.185V129.185H305.061H382.469V156.582V157.582H383.469H424.369H425.369V156.582V129.185H446.408Z" stroke="black" stroke-width="2"/>
<circle cx="71.8157" cy="7.06383" r="3.70922" fill="white" stroke="black" stroke-width="2"/>
<circle cx="118.908" cy="7.06383" r="3.70922" fill="white" stroke="black" stroke-width="2"/>
<circle cx="84.766" cy="68.2837" r="3.70922" fill="white" stroke="black" stroke-width="2"/>
<circle cx="125.972" cy="68.2837" r="3.70922" fill="white" stroke="black" stroke-width="2"/>
<circle cx="148.34" cy="94.1844" r="3.70922" fill="white" stroke="black" stroke-width="2"/>
<circle cx="148.34" cy="128.326" r="3.70922" fill="white" stroke="black" stroke-width="2"/>
<circle cx="125.972" cy="129.504" r="3.70922" fill="white" stroke="black" stroke-width="2"/>
<circle cx="125.972" cy="156.582" r="3.70922" fill="white" stroke="black" stroke-width="2"/>
<circle cx="82.4114" cy="156.582" r="3.70922" fill="white" stroke="black" stroke-width="2"/>
<circle cx="82.4114" cy="129.504" r="3.70922" fill="white" stroke="black" stroke-width="2"/>
<circle cx="84.766" cy="94.1844" r="3.70922" fill="white" stroke="black" stroke-width="2"/>
<circle cx="57.688" cy="94.1844" r="3.70922" fill="white" stroke="black" stroke-width="2"/>
<circle cx="4.70922" cy="101.248" r="3.70922" fill="white" stroke="black" stroke-width="2"/>
<circle cx="4.70922" cy="129.504" r="3.70922" fill="white" stroke="black" stroke-width="2"/>
<circle cx="370.851" cy="7.06383" r="3.70922" fill="white" stroke="black" stroke-width="2"/>
<circle cx="417.943" cy="7.06383" r="3.70922" fill="white" stroke="black" stroke-width="2"/>
<circle cx="383.801" cy="68.2837" r="3.70922" fill="white" stroke="black" stroke-width="2"/>
<circle cx="425.007" cy="68.2837" r="3.70922" fill="white" stroke="black" stroke-width="2"/>
<circle cx="447.376" cy="94.1844" r="3.70922" fill="white" stroke="black" stroke-width="2"/>
<circle cx="447.376" cy="128.326" r="3.70922" fill="white" stroke="black" stroke-width="2"/>
<circle cx="425.007" cy="129.504" r="3.70922" fill="white" stroke="black" stroke-width="2"/>
<circle cx="425.007" cy="156.582" r="3.70922" fill="white" stroke="black" stroke-width="2"/>
<circle cx="381.447" cy="156.582" r="3.70922" fill="white" stroke="black" stroke-width="2"/>
<circle cx="381.447" cy="129.504" r="3.70922" fill="white" stroke="black" stroke-width="2"/>
<circle cx="383.801" cy="94.1844" r="3.70922" fill="white" stroke="black" stroke-width="2"/>
<circle cx="356.723" cy="94.1844" r="3.70922" fill="white" stroke="black" stroke-width="2"/>
<circle cx="303.745" cy="101.248" r="3.70922" fill="white" stroke="black" stroke-width="2"/>
<circle cx="303.745" cy="129.504" r="3.70922" fill="white" stroke="black" stroke-width="2"/>
<circle cx="227.22" cy="4.70922" r="3.70922" fill="white" stroke="black" stroke-width="2"/>
<circle cx="227.22" cy="161.291" r="3.70922" fill="white" stroke="black" stroke-width="2"/>
<circle cx="293.149" cy="80.0568" r="3.70922" fill="white" stroke="black" stroke-width="2"/>
<circle cx="248.411" cy="80.0568" r="3.70922" fill="white" stroke="black" stroke-width="2"/>
<circle cx="204.851" cy="80.0568" r="3.70922" fill="white" stroke="black" stroke-width="2"/>
<circle cx="158.936" cy="80.0568" r="3.70922" fill="white" stroke="black" stroke-width="2"/>
<circle cx="227.22" cy="41.2057" r="3.70922" fill="white" stroke="black" stroke-width="2"/>
<circle cx="227.22" cy="123.617" r="3.70922" fill="white" stroke="black" stroke-width="2"/>
</svg>
