<svg width="29" height="16" viewBox="0 0 29 16" fill="none" xmlns="http://www.w3.org/2000/svg">
<path fill-rule="evenodd" clip-rule="evenodd" d="M24.6202 10.122C25.5692 11.033 26.5702 11.891 27.4212 12.894C27.7972 13.338 28.1532 13.798 28.4252 14.315C28.8112 15.051 28.4622 15.861 27.7912 15.904L23.6242 15.902C22.5492 15.99 21.6912 15.564 20.9712 14.842C20.3942 14.265 19.8592 13.648 19.3042 13.051C19.0772 12.808 18.8392 12.578 18.5542 12.396C17.9862 12.032 17.4922 12.143 17.1672 12.728C16.8352 13.32 16.7602 13.978 16.7282 14.639C16.6832 15.605 16.3872 15.859 15.4012 15.902C13.2942 15.999 11.2952 15.686 9.43818 14.641C7.80018 13.721 6.53018 12.42 5.42518 10.947C3.27318 8.079 1.62518 4.929 0.144185 1.69C-0.188815 0.962 0.0551845 0.57 0.874185 0.555C2.23318 0.53 3.59218 0.532 4.95418 0.553C5.50618 0.562 5.87218 0.874 6.08518 1.386C6.82118 3.165 7.72118 4.856 8.85118 6.425C9.15119 6.844 9.45818 7.261 9.89518 7.554C10.3782 7.88 10.7462 7.773 10.9742 7.243C11.1182 6.909 11.1812 6.545 11.2142 6.187C11.3212 4.949 11.3362 3.715 11.1472 2.482C11.0312 1.713 10.5902 1.215 9.80919 1.07C9.41119 0.995 9.47019 0.849 9.66319 0.625C9.99819 0.239 10.3132 0 10.9412 0H15.6512C16.3932 0.143 16.5572 0.471 16.6592 1.206L16.6632 6.349C16.6552 6.633 16.8072 7.477 17.3272 7.666C17.7442 7.799 18.0182 7.471 18.2682 7.212C19.3962 6.035 20.2002 4.643 20.9192 3.203C21.2382 2.57 21.5132 1.912 21.7792 1.255C21.9762 0.767 22.2852 0.527 22.8442 0.539L27.3762 0.542C27.5112 0.542 27.6472 0.544 27.7772 0.566C28.5412 0.694 28.7502 1.016 28.5142 1.751C28.1432 2.901 27.4192 3.86 26.7122 4.824C25.9562 5.853 25.1482 6.846 24.3982 7.88C23.7092 8.825 23.7642 9.301 24.6202 10.122Z" fill="#5479A3"/>
</svg>
