<svg width="24" height="17" viewBox="0 0 24 17" fill="none" xmlns="http://www.w3.org/2000/svg">
<path d="M11.9991 17.001C11.9971 17.001 11.9949 17.001 11.9927 17.001C11.2685 16.9961 4.86644 16.9389 3.0526 16.458C1.78496 16.124 0.784286 15.1443 0.442612 13.9015C-0.0319978 12.155 -0.0017854 8.79245 0.00151049 8.52395C-0.0016023 8.2567 -0.0321809 4.86632 0.441147 3.10544C0.441696 3.10383 0.442062 3.10203 0.442612 3.10042C0.780441 1.87188 1.80363 0.861763 3.04948 0.526853C3.0526 0.525956 3.05589 0.525238 3.05901 0.524341C4.85234 0.0623588 11.2671 0.00582254 11.9927 0.000976562H12.0057C12.7317 0.00582254 19.1509 0.0630767 20.948 0.544622C22.2124 0.877737 23.2123 1.85626 23.5549 3.09737C24.0473 4.8595 24.0017 8.25724 23.9967 8.54405C24.0002 8.82655 24.029 12.159 23.5571 13.9143C23.5567 13.9161 23.5562 13.9177 23.5558 13.9193C23.214 15.162 22.2135 16.1418 20.9444 16.4762C20.9427 16.4767 20.9409 16.4771 20.9393 16.4776C19.1461 16.9394 12.7312 16.996 12.0057 17.001C12.0035 17.001 12.0013 17.001 11.9991 17.001ZM2.25352 3.57676C1.83678 5.13106 1.87614 8.47818 1.87651 8.51192V8.53615C1.86406 9.46443 1.90782 12.1527 2.25371 13.4259C2.42143 14.0356 2.9149 14.5186 3.54076 14.6835C4.87907 15.0384 10.0934 15.15 11.9991 15.1631C13.9098 15.15 19.1318 15.0414 20.4602 14.7008C21.0841 14.5353 21.5759 14.0539 21.7447 13.4435C22.091 12.1516 22.1344 9.47645 22.1217 8.5541C22.1217 8.54441 22.1217 8.53472 22.1219 8.52503C22.1391 7.58563 22.1053 4.86596 21.7464 3.5825C21.746 3.58125 21.7456 3.57999 21.7455 3.57873C21.577 2.96635 21.0834 2.48337 20.4575 2.31842C19.1322 1.96323 13.9095 1.85196 11.9991 1.83885C10.0897 1.85196 4.87285 1.96036 3.54039 2.30066C2.92644 2.46757 2.4218 2.96778 2.25352 3.57676ZM22.6506 13.6802H22.6511H22.6506ZM9.60942 12.2225V4.77928L16.1719 8.50098L9.60942 12.2225Z" fill="#CFCFCF"/>
</svg>
