<svg width="21" height="21" viewBox="0 0 21 21" fill="none" xmlns="http://www.w3.org/2000/svg">
<path fill-rule="evenodd" clip-rule="evenodd" d="M14.437 21H6.562C2.939 21 0 18.062 0 14.438V6.56298C0 2.93898 2.939 0.000976562 6.562 0.000976562H14.437C18.061 0.000976562 21 2.93898 21 6.56298V14.438C21 18.062 18.061 21 14.437 21ZM19.031 6.56298C19.031 4.02998 16.971 1.96898 14.437 1.96898H6.562C4.029 1.96898 1.969 4.02998 1.969 6.56298V14.438C1.969 16.971 4.029 19.032 6.562 19.032H14.437C16.971 19.032 19.031 16.971 19.031 14.438V6.56298ZM16.144 5.55598C15.757 5.55598 15.444 5.24298 15.444 4.85698C15.444 4.47098 15.757 4.15798 16.144 4.15798C16.53 4.15798 16.843 4.47098 16.843 4.85698C16.843 5.24298 16.53 5.55598 16.144 5.55598ZM10.5 15.751C7.601 15.751 5.25 13.4 5.25 10.501C5.25 7.60198 7.601 5.25098 10.5 5.25098C13.399 5.25098 15.75 7.60198 15.75 10.501C15.75 13.4 13.399 15.751 10.5 15.751ZM10.5 7.21998C8.691 7.21998 7.219 8.69098 7.219 10.501C7.219 12.309 8.691 13.782 10.5 13.782C12.308 13.782 13.781 12.309 13.781 10.501C13.781 8.69098 12.308 7.21998 10.5 7.21998Z" fill="url(#paint0_linear)"/>
<defs>
<linearGradient id="paint0_linear" x1="2.29687" y1="17.0627" x2="20.9995" y2="5.90616" gradientUnits="userSpaceOnUse">
<stop stop-color="#FEB60C"/>
<stop offset="0.473958" stop-color="#E63E50"/>
<stop offset="0.744792" stop-color="#C8307F"/>
<stop offset="1" stop-color="#9D28B1"/>
</linearGradient>
</defs>
</svg>
