<svg width="13" height="13" viewBox="0 0 13 13" fill="none" xmlns="http://www.w3.org/2000/svg">
<path d="M9.26229 6.01815H0V7.02179H9.26229V6.01815Z" fill="#FFA800"/>
<path d="M9.7541 6.27212L5.58717 2L4.89165 2.70967L9.05858 6.9818L10 6.51997L9.7541 6.27212Z" fill="#FFA800"/>
<path d="M9.7541 6.72788L5.58717 11L4.89165 10.2903L9.05858 6.0182L10 6.51997L9.7541 6.72788Z" fill="#FFA800"/>
<path d="M13 2V11C13 12.1046 12.1046 13 11 13H9V12H11C11.5522 12 12 11.5523 12 11V2C12 1.44772 11.5522 1 11 1H9V0H11C12.1046 0 13 0.895432 13 2Z" fill="#FFA800"/>
</svg>
