<svg width="22" height="21" viewBox="0 0 22 21" fill="none" xmlns="http://www.w3.org/2000/svg">
<path d="M9.12464 17.2162C8.03582 17.2162 7.15 18.0649 7.15 19.1081C7.15 20.1513 8.03582 21 9.12464 21C10.2135 21 11.0993 20.1513 11.0993 19.1081C11.0992 18.0649 10.2134 17.2162 9.12464 17.2162ZM9.12464 19.9436C8.64375 19.9436 8.25254 19.5687 8.25254 19.108C8.25254 18.6473 8.6438 18.2725 9.12464 18.2725C9.60548 18.2725 9.99674 18.6473 9.99674 19.108C9.99674 19.5688 9.60548 19.9436 9.12464 19.9436Z" fill="#FFA800"/>
<path d="M15.8948 17.2162C14.806 17.2162 13.9202 18.0649 13.9202 19.1081C13.9202 20.1513 14.806 21 15.8948 21C16.9836 21 17.8695 20.1513 17.8695 19.1081C17.8694 18.0649 16.9836 17.2162 15.8948 17.2162ZM15.8948 19.9436C15.4139 19.9436 15.0227 19.5687 15.0227 19.108C15.0227 18.6473 15.414 18.2725 15.8948 18.2725C16.3757 18.2725 16.7669 18.6473 16.7669 19.108C16.7669 19.5688 16.3757 19.9436 15.8948 19.9436Z" fill="#FFA800"/>
<path d="M16.5 6.91892L8.51822 6.95946C8.232 6.95946 8 7.20146 8 7.5C8 7.79854 8.23204 8.04054 8.51822 8.04054L16.5 8C16.7862 8 17.0182 7.758 17.0182 7.45946C17.0182 7.16087 16.7862 6.91892 16.5 6.91892Z" fill="#FFA800"/>
<path d="M15.5035 8.95946H9.50529C9.23104 8.95946 9.00874 9.20146 9.00874 9.5C9.00874 9.79854 9.23104 10.0405 9.50529 10.0405H15.5034C15.7777 10.0405 16 9.79854 16 9.5C16 9.2015 15.7777 8.95946 15.5035 8.95946Z" fill="#FFA800"/>
<path d="M21.721 3.78378C21.5044 3.52996 21.2099 3.24324 20.867 3.24324H4.23137L3.94728 1.8542C3.87269 1.50875 3.62593 1.21869 3.28704 1.07819L0.794217 0.0450369C0.506428 -0.0743257 0.171971 0.0517664 0.0471417 0.326469C-0.0778226 0.601257 0.0542348 0.920651 0.341888 1.03984L2.83476 2.07304L5.48743 15.2729C5.59568 15.7745 6.06355 16.1386 6.59995 16.1386H19.0779C19.3916 16.1386 19.6458 15.8958 19.6458 15.5963C19.6458 15.2968 19.3916 15.0541 19.0779 15.0541H6.6L6.36109 14.0418H19.2784C19.8148 14.0418 20.2827 13.6777 20.3909 13.1761L21.9795 4.8135C22.0487 4.4929 21.9377 4.03756 21.721 3.78378ZM19.2784 12.9573H6.12711L4.51346 4.32432H20.867L19.2784 12.9573Z" fill="#FFA800"/>
</svg>
